<?xml version="1.0" encoding="utf-8"?>
<!-- Generator: Adobe Illustrator 16.0.0, SVG Export Plug-In . SVG Version: 6.00 Build 0)  -->
<!DOCTYPE svg PUBLIC "-//W3C//DTD SVG 1.1//EN" "http://www.w3.org/Graphics/SVG/1.1/DTD/svg11.dtd">
<svg version="1.1" id="layer1" xmlns="http://www.w3.org/2000/svg" xmlns:xlink="http://www.w3.org/1999/xlink" x="0px" y="0px"
	 width="967.453px" height="832.453px" viewBox="0 0 967.453 832.453" enable-background="new 0 0 967.453 832.453"
	 xml:space="preserve">
<g id="Layer_1_1_" display="none">
</g>
<g id="hh">
	<polyline id="bedroom2" fill="#D35959" stroke="#0C0B0B" stroke-width="4" stroke-miterlimit="10" points="25.884,367.384 
		25.884,29.384 288.884,29.384 288.884,367.384 	"/>
	
		<rect id="stairs" x="741.884" y="457.384" fill="#841A1A" stroke="#000000" stroke-width="4" stroke-miterlimit="10" enable-background="new    " width="193" height="351.334"/>
	<polyline id="bedroom1" fill="#5A81D1" fill-opacity="0.9" stroke="#0C0B0B" stroke-width="4" stroke-miterlimit="10" points="
		417.884,477.199 417.884,808.718 25.884,808.718 25.884,477.199 	"/>
	
		<rect id="livingroom" x="417.884" y="308.384" fill="#D35959" stroke="#0C0B0B" stroke-width="4" stroke-miterlimit="10" enable-background="new    " width="324" height="500.334"/>
	
		<polyline id="bathroom" fill="#C68B8B" stroke="#0C0B0B" stroke-width="4" stroke-miterlimit="10" enable-background="new    " points="
		288.884,29.384 288.884,287.051 345.884,287.051 345.884,245.622 413.884,245.622 414.884,29.384 	"/>
	<line fill="none" stroke="#0C0B0B" stroke-width="4" stroke-miterlimit="10" x1="288.884" y1="29.384" x2="414.884" y2="29.384"/>
	
		<polyline opacity="0.5" fill="#C68B8B" stroke="#0C0B0B" stroke-width="4" stroke-miterlimit="10" enable-background="new    " points="
		25.884,479.051 25.884,366.384 174.884,366.384 174.884,479.051 	"/>
	<polyline fill="#D35959" stroke="#0C0B0B" stroke-width="4" stroke-miterlimit="10" points="288.884,367.384 288.884,479.051 
		174.884,479.051 174.884,367.384 	"/>
	
		<rect x="345.884" y="245.622" opacity="0.5" fill="#D35959" stroke="#0C0B0B" stroke-width="4" stroke-miterlimit="10" enable-background="new    " width="69" height="61.762"/>
	<path fill="none" stroke="#0C0B0B" stroke-width="4" stroke-miterlimit="10" d="M345.884,284.384"/>
	<path fill="none" stroke="#0C0B0B" stroke-width="4" stroke-miterlimit="10" d="M288.884,284.384"/>
	
		<polyline id="cl_1_" opacity="0.5" fill="#0DA3A3" stroke="#0C0B0B" stroke-width="4" stroke-miterlimit="10" enable-background="new    " points="
		352.634,479.051 353.134,380.051 416.134,380.051 415.634,479.051 	"/>
	<text transform="matrix(1 0 0 1 149.6592 607.3838)" font-family="'ArialMT'" font-size="18">BEDROOM #1</text>
	<text transform="matrix(1 0 0 1 154.1089 638.3838)" font-family="'ArialMT'" font-size="18">16’-2’’ X 13’-5’’</text>
	<text transform="matrix(1 0 0 1 773.8848 489.3838)" font-family="'ArialMT'" font-size="18">ENTRY </text>
	
		<text transform="matrix(1 0 0 1 802.8848 763.3838)" fill="none" stroke="#000000" stroke-miterlimit="10" font-family="'ArialMT'" font-size="18">STAIRS </text>
	<text transform="matrix(1 0 0 1 521.8848 609.0508)" font-family="'ArialMT'" font-size="18">LIVING ROOM </text>
	<text transform="matrix(1 0 0 1 521.8848 630.6504)" font-family="'ArialMT'" font-size="18">13’-5’’ X 20’-11‘’</text>
	<text transform="matrix(1 0 0 1 92.8843 164.3838)" font-family="'ArialMT'" font-size="18">BEDROOM #2</text>
	<text transform="matrix(1 0 0 1 92.8843 185.9834)" font-family="'ArialMT'" font-size="18">10’-1‘’ X 13’-5’’</text>
	<text transform="matrix(1 0 0 1 309.8843 170.3838)" font-family="'ArialMT'" font-size="18">BATH</text>
	<text transform="matrix(1 0 0 1 333.8843 362.3838)" font-family="'ArialMT'" font-size="18">HALL</text>
	<polyline fill="none" stroke="#0C0B0B" stroke-width="0.5" stroke-miterlimit="10" points="309.884,47.384 401.884,47.384 
		401.884,95.384 309.884,95.384 	"/>
	<path fill="none" stroke="#0C0B0B" stroke-width="0.5" stroke-miterlimit="10" d="M318.009,96.509c-13.807,0-25-10.193-25-24
		c0-13.807,11.193-25,25-25"/>
	<path fill="none" stroke="#0C0B0B" stroke-width="0.5" stroke-miterlimit="10" d="M309.884,48.867"/>
	<circle fill="#0F0808" stroke="#0C0B0B" stroke-width="0.5" stroke-miterlimit="10" cx="391.884" cy="72.009" r="3"/>
	<rect x="371.884" y="114.384" fill="none" stroke="#0C0B0B" stroke-width="0.5" stroke-miterlimit="10" width="36" height="63"/>
	<rect x="387.384" y="181.384" fill="none" stroke="#0C0B0B" stroke-width="0.5" stroke-miterlimit="10" width="17.5" height="36"/>
	<ellipse fill="none" stroke="#0C0B0B" stroke-width="0.5" stroke-miterlimit="10" cx="367.384" cy="199.384" rx="17" ry="12"/>
	
		<line fill="none" stroke="#0C0B0B" stroke-width="4" stroke-miterlimit="10" x1="352.634" y1="479.051" x2="288.884" y2="479.051"/>
	
		<line fill="none" stroke="#0C0B0B" stroke-width="4" stroke-miterlimit="10" x1="288.884" y1="479.051" x2="288.884" y2="284.384"/>
	
		<line fill="none" stroke="#0C0B0B" stroke-width="4" stroke-miterlimit="10" x1="414.884" y1="307.384" x2="414.884" y2="380.051"/>
	
		<polyline id="hall" opacity="0.5" fill="#C62626" stroke="#0C0B0B" stroke-width="4" stroke-miterlimit="10" enable-background="new    " points="
		288.884,479.051 353.134,479.051 353.134,380.051 414.884,380.051 414.884,307.384 345.884,307.384 345.884,284.384 
		288.884,284.384 	"/>
	
		<line fill="none" stroke="#0C0B0B" stroke-width="4" stroke-miterlimit="10" x1="288.884" y1="479.051" x2="288.884" y2="284.384"/>
	<path fill="none" stroke="#0C0B0B" stroke-width="4" stroke-miterlimit="10" d="M174.884,479.051"/>
	<line fill="none" stroke="#0C0B0B" stroke-width="4" stroke-miterlimit="10" x1="26.884" y1="479.051" x2="72.884" y2="479.051"/>
	
		<line fill="none" stroke="#0C0B0B" stroke-width="4" stroke-miterlimit="10" x1="128.884" y1="479.051" x2="174.884" y2="479.051"/>
	<polyline id="kitchen" fill="#D35959" fill-opacity="0.5" stroke="#0C0B0B" stroke-width="4" stroke-miterlimit="10" points="
		606.384,307.884 413.384,307.884 413.384,28.884 606.384,28.884 	"/>
	<path fill="#D35959" stroke="#0C0B0B" stroke-width="4" stroke-miterlimit="10" d="M607.884,105.384"/>
	<circle fill="none" stroke="#000000" stroke-miterlimit="10" cx="429.884" cy="158.217" r="9"/>
	<circle fill="none" stroke="#000000" stroke-miterlimit="10" cx="429.884" cy="185.384" r="9"/>
	<circle fill="none" stroke="#000000" stroke-miterlimit="10" cx="451.384" cy="157.8" r="9"/>
	<circle fill="none" stroke="#000000" stroke-miterlimit="10" cx="451.384" cy="184.967" r="9"/>
	<g>
		<path fill="none" stroke="#000000" stroke-miterlimit="10" d="M548.884,81.384c0,3.3-2.7,6-6,6h-44c-3.3,0-6-2.7-6-6V51.867
			c0-3.3,2.7-6,6-6h44c3.3,0,6,2.7,6,6V81.384z"/>
	</g>
	<line fill="none" stroke="#000000" stroke-miterlimit="10" x1="493.884" y1="86.384" x2="544.884" y2="46.384"/>
	<circle stroke="#000000" stroke-miterlimit="10" cx="518.384" cy="67.384" r="4.5"/>
	<line fill="none" stroke="#000000" stroke-miterlimit="10" x1="493.884" y1="48.867" x2="548.884" y2="86.384"/>
	<path fill="none" stroke="#0C0B0B" stroke-width="4" stroke-miterlimit="10" d="M606.384,307.884"/>
	<line fill="none" stroke="#0C0B0B" stroke-width="4" stroke-miterlimit="10" x1="606.384" y1="28.884" x2="606.384" y2="105.384"/>
	
		<line fill="none" stroke="#0C0B0B" stroke-width="4" stroke-miterlimit="10" x1="606.384" y1="164.384" x2="606.384" y2="307.884"/>
	<line fill="none" stroke="#0C0B0B" stroke-width="4" stroke-miterlimit="10" x1="606.384" y1="28.884" x2="845.884" y2="29.384"/>
	
		<polyline id="dining" fill="#1431C1" stroke="#0C0B0B" stroke-width="4" stroke-miterlimit="10" enable-background="new    " points="
		845.884,28.883 845.884,292.913 741.884,292.913 741.884,308.384 606.384,307.868 607.884,28.883 612.884,28.883 845.884,28.883 	
		"/>
	<g>
		<path fill="none" stroke="#000000" stroke-miterlimit="10" d="M462.884,191.134c0,3.3-2.7,6-6,6h-33c-3.3,0-6-2.7-6-6v-41.5
			c0-3.3,2.7-6,6-6h33c3.3,0,6,2.7,6,6V191.134z"/>
		<text transform="matrix(1 0 0 1 664.1367 135.3838)" font-family="'ArialMT'" font-size="18">DINING ROOM </text>
		<text transform="matrix(1 0 0 1 674.1123 156.9834)" font-family="'ArialMT'" font-size="18">9-6’’ X 10’-4’’</text>
	</g>
	<polyline id="misc" fill="#D35959" stroke="#0C0B0B" stroke-width="4" stroke-miterlimit="10" points="741.884,366.384 
		741.884,366.384 741.884,292.913 741.884,292.913 834.884,292.913 834.884,292.913 834.884,366.384 834.884,366.384 	"/>
	<path fill="#D35959" stroke="#0C0B0B" stroke-width="4" stroke-miterlimit="10" d="M813.884,367.384"/>
	<path fill="#D35959" stroke="#0C0B0B" stroke-width="4" stroke-miterlimit="10" d="M813.884,367.384"/>
	
		<line fill="none" stroke="#0C0B0B" stroke-width="4" stroke-miterlimit="10" x1="834.884" y1="366.384" x2="834.884" y2="457.384"/>
	
		<line fill="none" stroke="#0C0B0B" stroke-width="4" stroke-miterlimit="10" x1="834.884" y1="457.384" x2="934.884" y2="457.384"/>
	<rect x="751.884" y="554.384" fill="none" stroke="#1E0707" stroke-miterlimit="10" width="81" height="22"/>
	<rect x="751.884" y="580.384" fill="none" stroke="#1E0707" stroke-miterlimit="10" width="81" height="22"/>
	<rect x="751.884" y="606.384" fill="none" stroke="#1E0707" stroke-miterlimit="10" width="81" height="22"/>
	<rect x="752.884" y="632.384" fill="none" stroke="#1E0707" stroke-miterlimit="10" width="81" height="22"/>
	<rect x="752.884" y="658.384" fill="none" stroke="#1E0707" stroke-miterlimit="10" width="81" height="22"/>
	<rect x="752.884" y="684.384" fill="none" stroke="#1E0707" stroke-miterlimit="10" width="81" height="22"/>
	<rect x="752.884" y="710.384" fill="none" stroke="#1E0707" stroke-miterlimit="10" width="81" height="22"/>
	<rect x="840.884" y="555.384" fill="none" stroke="#1E0707" stroke-miterlimit="10" width="81" height="22"/>
	<rect x="840.884" y="581.384" fill="none" stroke="#1E0707" stroke-miterlimit="10" width="81" height="22"/>
	<rect x="840.884" y="607.384" fill="none" stroke="#1E0707" stroke-miterlimit="10" width="81" height="22"/>
	<rect x="841.884" y="633.384" fill="none" stroke="#1E0707" stroke-miterlimit="10" width="81" height="22"/>
	<rect x="841.884" y="659.384" fill="none" stroke="#1E0707" stroke-miterlimit="10" width="81" height="22"/>
	<rect x="841.884" y="685.384" fill="none" stroke="#1E0707" stroke-miterlimit="10" width="81" height="22"/>
	<rect x="841.884" y="711.384" fill="none" stroke="#1E0707" stroke-miterlimit="10" width="81" height="22"/>
	
		<line fill="none" stroke="#1E0707" stroke-width="4" stroke-miterlimit="10" x1="739.884" y1="367.384" x2="767.884" y2="367.384"/>
	
		<line fill="none" stroke="#1E0707" stroke-width="4" stroke-miterlimit="10" x1="804.884" y1="368.384" x2="832.884" y2="368.384"/>
	
		<rect x="10.498" y="14.997" fill="none" stroke="#000000" stroke-width="5" stroke-miterlimit="10" width="943.453" height="806.959"/>
	<text transform="matrix(1 0 0 1 501.8887 181.3838)" font-family="'ArialMT'" font-size="18">KITCHEN</text>
	<text transform="matrix(1 0 0 1 501.8887 202.9834)" font-family="'ArialMT'" font-size="18">7’-9’’ X 11’</text>
	<text transform="matrix(1 0 0 1 66.4146 438.3818)" font-family="'ArialMT'" font-size="18">STORE 1</text>
	<text transform="matrix(1 0 0 1 192.4346 423.2178)" font-family="'ArialMT'" font-size="18">STORE 2</text>
	<text transform="matrix(1 0 0 1 357.3838 438.3818)" font-family="'ArialMT'" font-size="12">STORE 3</text>
	<rect x="739.884" y="367.384" fill="#FFFFFF" stroke="#0C0B0B" stroke-miterlimit="10" width="95" height="90"/>
</g>
</svg>
